<svg width="67" height="67" viewBox="0 0 67 67" fill="none" xmlns="http://www.w3.org/2000/svg">
<path d="M33.2211 0L40.8985 4.44861H49.7957L54.2443 12.1978L61.9935 16.6464V25.5436L66.4421 33.2211L61.9935 40.8985V49.7957L54.2443 54.2443L49.7957 61.9935H40.8985L33.2211 66.4421L25.5436 61.9935H16.6464L12.1978 54.2443L4.44861 49.7957V40.8985L0 33.2211L4.44861 25.5436V16.6464L12.1978 12.1978L16.6464 4.44861H25.5436L33.2211 0Z" fill="#647EFF"/>
<path d="M33.2211 57.5449C19.8035 57.5449 8.89722 46.6386 8.89722 33.2211C8.89722 19.8035 19.8035 8.89722 33.2211 8.89722C46.6386 8.89722 57.5449 19.8035 57.5449 33.2211C57.5449 46.6386 46.6386 57.5449 33.2211 57.5449ZM33.2211 10.978C20.9515 10.978 10.978 20.9515 10.978 33.2211C10.978 45.4906 20.9515 55.4641 33.2211 55.4641C45.4906 55.4641 55.4641 45.4906 55.4641 33.2211C55.4641 20.9515 45.4906 10.978 33.2211 10.978Z" fill="white"/>
<path d="M30.5663 42.2618L20.0188 33.8668C19.1577 33.1493 19.0142 31.9295 19.7318 31.0685C20.4493 30.2075 21.669 30.064 22.5301 30.7815L31.5708 38.0284L43.6251 24.5391C44.3426 23.7498 45.6341 23.6781 46.4234 24.3956C47.2127 25.1131 47.2844 26.4046 46.5669 27.1939L33.2928 42.0465C32.5753 42.8358 31.3555 42.9075 30.5663 42.2618Z" fill="#FFD77A"/>
</svg>
