<svg width="67" height="67" viewBox="0 0 67 67" fill="none" xmlns="http://www.w3.org/2000/svg">
<path d="M3.76631 0C3.3188 4.65167e-05 2.95604 0.362807 2.95599 0.810314V15.6154V65.6356C2.95604 66.0831 3.3188 66.4459 3.76631 66.4459H6.71795H59.826H62.769C63.2165 66.4459 63.5793 66.0831 63.5794 65.6356V62.7764V15.6154V12.633V0.810314C63.5793 0.362807 63.2165 4.65167e-05 62.769 0H3.76631ZM7.52827 16.4257H59.0156V61.9661H7.52827V16.4257Z" fill="url(#paint0_linear_55_68)"/>
<path d="M60.485 7.5781C60.485 8.17518 60.367 8.76641 60.1377 9.31805C59.9084 9.86968 59.5722 10.3709 59.1485 10.7931C58.7248 11.2153 58.2218 11.5502 57.6682 11.7787C57.1146 12.0072 56.5212 12.1248 55.922 12.1248C55.3228 12.1248 54.7294 12.0072 54.1758 11.7787C53.6222 11.5502 53.1192 11.2153 52.6955 10.7931C52.2718 10.3709 51.9357 9.86968 51.7063 9.31805C51.477 8.76641 51.359 8.17518 51.359 7.5781C51.359 6.37224 51.8398 5.21577 52.6955 4.3631C53.5512 3.51043 54.7118 3.0314 55.922 3.0314C56.5212 3.0314 57.1146 3.149 57.6682 3.3775C58.2218 3.60599 58.7248 3.9409 59.1485 4.3631C59.5722 4.7853 59.9084 5.28652 60.1377 5.83815C60.367 6.38978 60.485 6.98102 60.485 7.5781Z" fill="white"/>
<path d="M48.3821 7.5781C48.3821 8.17518 48.2646 8.76641 48.0363 9.31805C47.808 9.86968 47.4734 10.3709 47.0516 10.7931C46.6297 11.2153 46.1289 11.5502 45.5777 11.7787C45.0266 12.0072 44.4358 12.1248 43.8393 12.1248C43.2427 12.1248 42.6519 12.0072 42.1008 11.7787C41.5496 11.5502 41.0488 11.2153 40.627 10.7931C40.2051 10.3709 39.8705 9.86968 39.6422 9.31805C39.4139 8.76641 39.2964 8.17518 39.2964 7.5781C39.2964 6.98102 39.4139 6.38978 39.6422 5.83815C39.8705 5.28652 40.2051 4.7853 40.627 4.3631C41.0488 3.9409 41.5496 3.60599 42.1008 3.3775C42.6519 3.149 43.2427 3.0314 43.8393 3.0314C45.0441 3.0314 46.1996 3.51043 47.0516 4.3631C47.9035 5.21577 48.3821 6.37224 48.3821 7.5781Z" fill="white"/>
<path d="M36.3063 7.5781C36.3063 8.17518 36.1888 8.76641 35.9604 9.31805C35.7319 9.86968 35.3972 10.3709 34.9751 10.7931C34.5531 11.2153 34.0521 11.5502 33.5006 11.7787C32.9492 12.0072 32.3582 12.1248 31.7614 12.1248C31.1645 12.1248 30.5735 12.0072 30.0221 11.7787C29.4707 11.5502 28.9696 11.2153 28.5476 10.7931C28.1256 10.3709 27.7908 9.86968 27.5624 9.31805C27.334 8.76641 27.2164 8.17518 27.2164 7.5781C27.2164 6.98102 27.334 6.38978 27.5624 5.83815C27.7908 5.28652 28.1256 4.7853 28.5476 4.3631C28.9696 3.9409 29.4707 3.60599 30.0221 3.3775C30.5735 3.149 31.1645 3.0314 31.7614 3.0314C32.9668 3.0314 34.1228 3.51043 34.9751 4.3631C35.8275 5.21577 36.3063 6.37224 36.3063 7.5781Z" fill="white"/>
<path d="M24.3187 33.5445L13.1875 37.8358L24.3187 42.1012V45.3326L9.07715 39.3481V36.2976L24.3187 30.3131V33.5445Z" fill="#99B000"/>
<path d="M36.4043 27.1169H39.2738L29.9801 48.577H27.1235L36.4043 27.1169Z" fill="#99B000"/>
<path d="M42.2549 33.5445V30.3131L57.4965 36.2976V39.3481L42.2549 45.3326V42.1012L53.3991 37.8358L42.2549 33.5445Z" fill="#99B000"/>
<defs>
<linearGradient id="paint0_linear_55_68" x1="4.14811" y1="66.4475" x2="58.8052" y2="4.15082" gradientUnits="userSpaceOnUse">
<stop stop-color="#4E505D"/>
<stop offset="1" stop-color="#7A859C"/>
</linearGradient>
</defs>
</svg>
